<?xml version="1.0" encoding="UTF-8"?>
<svg id="Layer_1" data-name="Layer 1" xmlns="http://www.w3.org/2000/svg" viewBox="0 0 116 24">
  <defs>
    <style>
      .cls-1, .cls-2 {
        fill: #3935d8;
        stroke-width: 0px;
      }

      .cls-2 {
        fill-rule: evenodd;
      }
    </style>
  </defs>
  <path class="cls-1" d="M14.139,10.308c3.498,1.2,6.203-2.826,4.134-5.891C16.474,1.751,13.44,0,10,0,4.477,0,0,4.513,0,10.081c0,6.527,7.407,12.272,9.471,13.747.322.23.736.23,1.057,0,1.126-.804,3.84-2.878,6.076-5.657,1.721-2.139.763-5.114-1.586-6.534-1.548-.935-3.881-.803-4.576.866-.342.822-.335,1.731.559,2.625,2.024,2.024-4,2.697-4-2.024,0-3.855,4.186-4.289,5.625-3.48.517.291,1.024.514,1.514.683Z"/>
  <path class="cls-1" d="M72.596,0h3.499v18.402h-3.499V0Z"/>
  <path class="cls-1" d="M96.36,18.816c-1.399,0-2.609-.268-3.629-.803-1.019-.553-1.797-1.339-2.333-2.359-.536-1.037-.803-2.255-.803-3.654s.276-2.626.829-3.68c.57-1.054,1.365-1.866,2.385-2.436,1.019-.57,2.203-.855,3.551-.855,1.192,0,2.246.216,3.162.648.916.415,1.65,1.028,2.203,1.84.57.795.916,1.736,1.037,2.825l-3.784.259c-.173-.916-.475-1.581-.907-1.996-.415-.432-.985-.648-1.711-.648-.639,0-1.175.156-1.607.467-.432.294-.76.743-.985,1.348-.225.605-.337,1.339-.337,2.203,0,.847.112,1.564.337,2.151.225.57.553,1.011.985,1.322.449.294.985.441,1.607.441.743,0,1.322-.199,1.737-.596.415-.397.708-1.028.881-1.892l3.784.259c-.121,1.071-.458,1.996-1.011,2.773-.553.778-1.287,1.374-2.203,1.788-.916.397-1.978.596-3.188.596Z"/>
  <path class="cls-1" d="M109.685,18.816c-1.348,0-2.548-.285-3.602-.855-1.054-.587-1.875-1.399-2.463-2.436-.57-1.054-.855-2.255-.855-3.603,0-1.313.277-2.488.829-3.525.571-1.054,1.348-1.875,2.333-2.462.985-.605,2.099-.907,3.344-.907s2.358.302,3.343.907c.985.587,1.754,1.408,2.307,2.462.553,1.054.829,2.246.829,3.577v.985h-9.382c0,.57.129,1.08.388,1.529.277.432.657.778,1.141,1.037.484.242,1.028.363,1.633.363.639,0,1.201-.138,1.684-.415.484-.276.821-.657,1.011-1.14l3.525.259c-.19,1.261-.847,2.281-1.97,3.058s-2.488,1.166-4.095,1.166ZM112.147,10.419c0-.467-.121-.89-.362-1.27-.242-.38-.588-.674-1.037-.881-.432-.207-.925-.311-1.477-.311s-1.055.112-1.504.337c-.432.207-.777.501-1.036.881-.242.363-.363.778-.363,1.244h5.779Z"/>
  <path class="cls-2" d="M28.661,24c-1.192,0-2.264-.181-3.214-.544-.95-.363-1.702-.864-2.255-1.503-.536-.622-.803-1.33-.803-2.125l3.836-.259c.086.346.233.622.441.829.207.225.475.389.804.492.328.121.726.182,1.192.182,1.054,0,1.875-.277,2.462-.829s.881-1.339.881-2.358v-1.784c-.396.854-.958,1.517-1.685,1.991-.726.484-1.581.726-2.566.726-1.106,0-2.099-.294-2.981-.881-.864-.587-1.546-1.408-2.047-2.462-.484-1.054-.726-2.238-.726-3.551,0-1.348.242-2.54.726-3.577.484-1.054,1.158-1.866,2.022-2.436.881-.587,1.883-.881,3.007-.881.985,0,1.84.242,2.566.726.727.473,1.288,1.137,1.685,1.991v-2.302h3.499v11.663c0,1.469-.268,2.713-.803,3.732-.536,1.037-1.313,1.823-2.333,2.359-1.019.536-2.255.803-3.706.803ZM30.475,15.395c-.484.328-1.045.493-1.685.493s-1.201-.164-1.685-.493c-.484-.328-.864-.795-1.14-1.399-.259-.605-.389-1.296-.389-2.073s.13-1.469.389-2.073c.276-.605.657-1.071,1.14-1.4.484-.328,1.045-.492,1.685-.492s1.201.164,1.685.492c.484.328.855.795,1.114,1.4.277.605.415,1.296.415,2.073s-.138,1.469-.415,2.073c-.259.605-.631,1.071-1.114,1.399Z"/>
  <path class="cls-2" d="M42.95,18.816c-1.348,0-2.549-.285-3.603-.855-1.054-.587-1.875-1.399-2.462-2.436-.57-1.054-.855-2.255-.855-3.603,0-1.313.276-2.488.829-3.525.57-1.054,1.348-1.875,2.333-2.462.985-.605,2.099-.907,3.343-.907s2.359.302,3.343.907c.807.481,1.469,1.12,1.986,1.915v-2.407h2.799V1.27h3.499v4.173h3.888v2.929h-3.888v5.546c0,.518.13.907.389,1.166.259.259.648.389,1.166.389h2.333v2.929h-2.98c-2.937,0-4.406-1.382-4.406-4.147v-5.883h-2.492c.561,1.059.843,2.261.843,3.603v.985h-9.382c0,.57.13,1.08.389,1.529.276.432.657.778,1.14,1.037.484.242,1.028.363,1.633.363.639,0,1.201-.138,1.685-.415.484-.276.821-.657,1.011-1.14l3.525.259c-.19,1.261-.847,2.281-1.97,3.058s-2.488,1.166-4.095,1.166ZM45.049,9.149c.242.38.363.803.363,1.27h-5.78c0-.467.121-.881.363-1.244.259-.38.605-.674,1.037-.881.449-.225.95-.337,1.503-.337s1.045.104,1.477.311c.449.207.795.501,1.037.881Z"/>
  <path class="cls-2" d="M66.188,18.816c-.985,0-1.849-.242-2.592-.726-.696-.464-1.249-1.111-1.659-1.94v7.435h-3.499V5.443h3.499v2.251c.41-.829.963-1.476,1.659-1.94.743-.484,1.607-.726,2.592-.726,1.106,0,2.091.294,2.955.881.881.587,1.564,1.408,2.048,2.462.501,1.037.752,2.22.752,3.551s-.25,2.523-.752,3.577c-.484,1.037-1.166,1.849-2.048,2.436-.864.587-1.849.881-2.955.881ZM66.836,15.395c-.484.328-1.045.493-1.685.493s-1.201-.164-1.685-.493c-.484-.328-.864-.795-1.14-1.399-.259-.605-.389-1.296-.389-2.073s.13-1.469.389-2.073c.276-.605.657-1.071,1.14-1.4.484-.328,1.045-.492,1.685-.492s1.201.164,1.685.492c.484.328.855.795,1.114,1.4.276.605.415,1.296.415,2.073s-.138,1.469-.415,2.073c-.259.605-.631,1.071-1.114,1.399Z"/>
  <path class="cls-2" d="M81.524,18.816c-.864,0-1.659-.173-2.384-.518-.708-.363-1.27-.847-1.685-1.451-.397-.622-.596-1.304-.596-2.047,0-1.21.501-2.16,1.503-2.851,1.002-.708,2.436-1.115,4.302-1.218h.181c1.002-.069,1.719-.225,2.151-.466.449-.259.622-.613.518-1.063-.086-.397-.328-.7-.726-.907-.397-.225-.924-.337-1.581-.337-.795,0-1.417.19-1.866.57-.432.363-.648.873-.648,1.529l-3.473-.259c0-.933.268-1.762.803-2.488.536-.726,1.287-1.287,2.255-1.685.985-.397,2.108-.596,3.369-.596,1.175,0,2.168.19,2.981.57.812.363,1.417.916,1.814,1.659.415.726.622,1.624.622,2.695v8.449h-3.499v-2.65c-.072.248-.158.483-.259.706-.346.76-.838,1.348-1.477,1.762-.639.397-1.408.596-2.307.596ZM83.883,15.395c-.518.328-1.123.493-1.814.493-.449,0-.838-.112-1.166-.337-.311-.225-.466-.544-.466-.959,0-.553.233-.924.7-1.115.466-.207,1.14-.363,2.022-.466l.311-.052c.898-.104,1.598-.449,2.099-1.037v.181c0,.708-.147,1.356-.441,1.944-.294.57-.708,1.02-1.244,1.348Z"/>
</svg>